# Blender 3.3.1
# www.blender.org
o Icosphere
v -1.201083 -0.152358 0.165195
v -0.475851 -0.231004 0.928362
v -1.255019 -0.139421 0.936321
v -2.041916 0.078418 0.254597
v -0.081656 -0.071665 1.158384
v -1.908197 0.142198 -0.191641
v -1.922315 0.288322 0.848467
v -0.179623 -0.074831 -0.340253
v -0.969965 0.136015 1.479869
v -2.348351 0.525782 -0.120358
v -0.970066 0.135728 -0.692908
v -1.581127 0.391111 -0.473251
v -0.196434 0.429677 1.958600
v -2.051331 0.617943 -0.398801
v -2.370700 0.573594 0.335381
v -1.215873 0.576367 1.479095
v 0.038336 0.481433 -0.582437
v 0.760977 0.509481 1.200679
v 0.464394 0.175906 0.889230
v -2.252755 1.097667 -0.420870
v -2.369372 1.040205 0.100872
v 0.260559 0.244025 0.030230
v -0.920933 0.783235 -0.654775
v -1.638396 1.059250 -0.390497
v -0.365247 0.982867 2.014324
v 0.828417 0.938017 1.177157
v 1.168382 0.279675 1.260244
v -1.959592 1.436291 0.489585
v -1.459386 1.077251 1.366256
v -0.220523 0.835017 -0.591822
v 0.617082 0.123996 0.330522
v 0.850593 0.055375 -0.222186
v 1.126891 0.853481 1.222777
v -1.770157 1.583835 -0.381692
v -2.201878 1.507974 -0.145463
v 0.443820 0.241322 -0.448478
v 0.106957 0.544874 -0.536198
v -1.090622 1.393105 -0.379903
v -1.051391 1.488818 1.752816
v 0.495768 1.090297 1.130448
v -0.483244 1.182416 1.759260
v 1.794645 0.467140 1.085359
v -1.876375 1.649076 0.234995
v 1.797812 0.081754 -0.208843
v 0.606589 0.718559 -1.174688
v -0.871888 1.568868 1.441508
v 1.909388 1.048688 1.012173
v 1.541630 0.022304 0.479536
v -1.437249 1.630283 -0.237123
v -1.695455 1.676390 -0.086110
v -1.769657 1.538944 0.594393
v 1.688857 0.363603 -0.715178
v 2.270121 0.253582 0.827789
v 1.279336 1.381165 0.985696
v 2.383256 0.655981 1.018207
v -0.139240 1.319771 -0.370946
v -0.277190 1.182394 -0.561403
v 2.608278 0.424529 -0.122948
v 2.582375 0.209681 0.421308
v 0.792165 1.196245 -1.221126
v 0.492896 1.255107 1.107358
v 1.983531 1.525172 0.996139
v 2.571052 1.089754 1.028928
v 2.003838 0.739194 -0.712912
v 0.585215 1.591467 -0.284007
v 2.773166 0.582781 0.764188
v 2.907745 0.606054 0.341757
v 2.742749 0.895345 0.067869
v 2.121004 1.165850 -0.602740
v 1.561775 1.584118 -0.966737
v 2.552954 1.470942 0.773595
v 1.981652 1.732543 0.379629
v 2.878065 1.049134 0.557233
v 1.008519 1.762233 -0.276226
v 1.209345 1.734917 0.220983
v 0.983080 1.697867 0.590502
v 2.497745 1.422535 0.202006
v 1.153220 1.762884 -0.147530
v 0.213988 2.545206 0.202447
v -0.409950 2.613410 0.853975
v 0.254671 2.535291 0.860764
v 0.925885 2.349477 0.279261
v -0.746194 2.477496 1.050180
v 0.811824 2.295074 -0.101374
v 0.823866 2.170432 0.785825
v -1.202124 2.472744 -0.525531
v 0.011523 2.300348 1.324403
v -1.502944 2.334611 0.298253
v 1.187269 1.967882 -0.040571
v 1.194628 1.966024 0.353075
v -0.050726 2.300569 -0.529908
v 0.532836 2.082755 -0.341584
v -0.530743 1.458978 1.732755
v -1.402874 1.627813 1.018159
v 0.221280 1.759645 1.323743
v -1.388040 1.998258 -0.732111
v -1.937057 1.824684 0.333943
v -0.030301 1.748277 -0.496422
v -0.762721 1.335465 -0.425163
vn -0.1166 -0.9931 0.0085
vn -0.2649 -0.9643 -0.0024
vn -0.0813 -0.7487 0.6579
vn -0.2798 -0.9351 -0.2175
vn -0.5347 -0.7571 0.3753
vn 0.0168 -0.9928 -0.1183
vn -0.0374 -0.8833 0.4672
vn 0.3407 -0.9379 0.0659
vn -0.6544 -0.6960 -0.2956
vn -0.7536 -0.5572 0.3487
vn -0.4910 -0.6458 0.5847
vn -0.0974 -0.9353 -0.3402
vn 0.2827 -0.9578 -0.0519
vn 0.0141 -0.7572 -0.6530
vn -0.0063 -0.8478 0.5303
vn -0.5230 -0.4676 -0.7126
vn -0.8316 -0.5550 0.0174
vn -0.5592 -0.3109 0.7685
vn 0.2532 -0.4679 -0.8468
vn -0.4712 -0.7901 -0.3921
vn -0.3513 -0.4606 -0.8151
vn -0.4413 -0.2449 0.8633
vn -0.6057 -0.2884 -0.7416
vn -0.9987 -0.0207 -0.0468
vn -0.6938 0.1687 0.7001
vn 0.7413 -0.4884 -0.4604
vn 0.0912 0.0516 -0.9945
vn -0.3077 0.0792 -0.9482
vn -0.1016 0.1137 -0.9883
vn -0.4410 -0.2222 0.8696
vn -0.3674 -0.4389 0.8200
vn 0.0477 -0.0259 -0.9985
vn -0.9758 0.0515 -0.2124
vn -0.7887 0.2778 0.5484
vn -0.6921 -0.1789 0.6993
vn 0.0867 0.0371 -0.9955
vn -0.3135 0.0902 -0.9453
vn -0.5124 -0.0561 0.8569
vn 0.5740 0.0932 0.8135
vn 0.0512 0.0296 -0.9982
vn -0.9520 0.2429 -0.1860
vn -0.8021 0.4767 0.3598
vn -0.7830 0.2733 0.5587
vn -0.6171 -0.7519 -0.2320
vn -0.1993 0.3560 -0.9130
vn -0.5082 -0.2657 0.8192
vn 0.3354 0.8544 0.3970
vn -0.0200 -0.9523 0.3044
vn 0.2456 0.0808 0.9660
vn -0.1157 -0.9910 0.0673
vn 0.0079 0.0188 -0.9998
vn -0.4769 0.5299 -0.7013
vn -0.7892 0.2596 0.5566
vn 0.0301 -0.7450 -0.6664
vn -0.1052 0.3842 -0.9173
vn 0.3686 -0.8160 0.4452
vn 0.2419 0.0740 0.9675
vn -0.0381 0.4739 -0.8798
vn -0.3046 0.9481 -0.0910
vn -0.6271 0.6536 0.4237
vn -0.0176 -0.8752 -0.4834
vn 0.0288 -0.9967 -0.0754
vn -0.0759 0.1371 0.9876
vn -0.0335 -0.7989 0.6006
vn 0.1552 0.3672 0.9171
vn 0.0780 0.1093 0.9909
vn -0.0038 0.9546 -0.2979
vn 0.3802 -0.7709 -0.5110
vn -0.0372 -0.8313 -0.5546
vn 0.1761 -0.9842 -0.0195
vn -0.5223 0.1209 -0.8441
vn 0.2476 -0.4704 0.8470
vn -0.0224 0.0371 0.9991
vn -0.0244 -0.0141 0.9996
vn 0.1851 -0.9517 0.2449
vn 0.3976 -0.8598 -0.3205
vn 0.5102 -0.4234 -0.7486
vn 0.3070 -0.2519 -0.9177
vn 0.3096 -0.2104 -0.9273
vn 0.4130 -0.4818 0.7728
vn -0.0251 0.7708 0.6365
vn -0.0276 0.0379 0.9989
vn -0.1555 0.7107 0.6861
vn 0.4988 -0.2366 0.8338
vn 0.5226 -0.7062 0.4777
vn 0.7320 -0.6449 -0.2198
vn 0.7165 0.0764 -0.6934
vn 0.4212 0.1166 -0.8994
vn 0.3516 0.5324 0.7700
vn 0.0344 0.9473 0.3185
vn 0.8390 0.0516 0.5416
vn 0.7756 -0.5937 0.2144
vn 0.8447 -0.0245 -0.5347
vn 0.7284 -0.0232 -0.6847
vn 0.4067 -0.2265 -0.8851
vn -0.3227 0.8213 -0.4704
vn 0.7948 0.3633 0.4860
vn 0.2099 0.9269 0.3111
vn 0.9509 -0.0814 0.2985
vn 0.9206 0.2189 -0.3234
vn 0.7345 0.4667 -0.4927
vn 0.7036 0.5120 -0.4927
vn 0.1287 0.9803 -0.1497
vn 0.7529 0.6457 -0.1274
vn 0.4805 0.8687 -0.1200
vn 0.8034 0.4673 -0.3690
vn 0.4406 0.8670 -0.2330
vn 0.1167 0.9931 0.0077
vn 0.2653 0.9642 -0.0019
vn 0.0813 0.7487 0.6579
vn 0.2805 0.9348 -0.2177
vn 0.5347 0.7571 0.3753
vn 0.0018 0.9947 -0.1024
vn 0.0374 0.8833 0.4672
vn -0.3061 0.9432 0.1288
vn 0.6544 0.6960 -0.2956
vn 0.7328 0.5816 0.3531
vn 0.4910 0.6458 0.5847
vn 0.1368 0.9237 -0.3580
vn -0.2754 0.9594 0.0603
vn -0.0147 0.7576 -0.6526
vn -0.1801 0.5210 0.8343
vn -0.6597 0.4884 0.5712
vn 0.4973 0.4307 -0.7531
vn 0.8200 0.5723 -0.0126
vn 0.5633 0.2175 0.7971
vn 0.0535 0.3809 -0.9231
vn 0.4335 0.7960 -0.4226
vn -0.7562 0.6318 -0.1702
vn 0.3920 0.4143 -0.8214
vn 0.4207 0.1621 0.8926
vn -0.5458 0.3940 0.7395
vn -0.5822 0.5383 0.6094
vn 0.8404 -0.2276 0.4918
vn -0.8142 0.4684 -0.3431
vn 0.1612 -0.0538 -0.9855
vn 0.2908 -0.0472 -0.9556
vn -0.8701 -0.0233 -0.4922
vn 0.1000 -0.3389 -0.9355
vn 0.5388 -0.0222 0.8421
vn -0.6563 -0.0405 0.7534
vn -0.9062 -0.3963 0.1476
vn -0.4518 -0.6938 -0.5607
vn 0.0753 -0.2978 -0.9517
vn 0.4883 -0.8465 0.2121
vn 0.5222 -0.7820 0.3402
vn 0.6441 -0.0004 -0.7649
vn 0.4685 -0.7169 0.5163
vn 0.7509 -0.4880 -0.4449
vn 0.6226 -0.0551 0.7806
vn -0.1131 0.0566 0.9920
vn -0.1300 0.0747 0.9887
vn -0.2048 -0.9782 0.0349
vn -0.3094 -0.9508 -0.0127
vn 0.0817 0.1002 -0.9916
vn 0.3724 0.2489 -0.8941
vn -0.3518 -0.9271 -0.1294
vn 0.3579 0.8086 0.4670
vn -0.6738 0.6603 0.3316
vn -0.4914 -0.6629 -0.5649
vn -0.4721 -0.6844 -0.5556
vn -0.5780 -0.0229 -0.8157
vn 0.4254 0.7978 0.4273
vn 0.4210 0.7899 0.4459
vn -0.1277 0.0824 0.9884
vn 0.1989 0.7022 -0.6836
vn -0.2845 0.9330 -0.2203
vn -0.5953 0.7015 0.3917
vn -0.5891 0.7245 0.3579
vn 0.0734 0.7828 -0.6179
vn 0.0291 0.7145 -0.6990
vn -0.0628 0.9747 0.2144
vn 0.0796 0.3893 0.9177
vn -0.2729 0.8634 -0.4244
vn -0.2732 0.8631 -0.4247
vn -0.2911 0.8568 -0.4256
vn -0.0155 0.9958 0.0904
vn -0.0129 0.9969 0.0776
vn 0.1306 0.9802 -0.1488
vn 0.7555 -0.0162 0.6549
vn -0.5182 0.3978 0.7571
vn 0.6393 0.2696 -0.7202
vn 0.9971 0.0739 -0.0183
vn 0.6892 -0.0661 0.7216
vn 0.0624 -0.1096 -0.9920
vn 0.4223 0.1581 0.8926
vn -0.7630 0.1301 0.6331
vn 0.9843 -0.0820 -0.1561
vn 0.7334 0.1068 0.6714
vn 0.6947 0.0669 0.7162
vn -0.8775 -0.1024 -0.4686
vn 0.3073 -0.0784 -0.9484
vn -0.4579 -0.6910 -0.5592
vn 0.2327 -0.3273 -0.9158
s 0
f 1//1 2//1 3//1
f 1//2 3//2 4//2
f 3//3 2//3 5//3
f 1//4 4//4 6//4
f 4//5 3//5 7//5
f 8//6 2//6 1//6
f 3//7 5//7 9//7
f 2//8 31//8 5//8
f 6//9 4//9 10//9
f 4//10 7//10 15//10
f 3//11 9//11 7//11
f 8//12 1//12 11//12
f 31//13 2//13 8//13
f 1//14 6//14 12//14
f 9//15 5//15 13//15
f 6//16 10//16 14//16
f 4//17 15//17 10//17
f 7//18 9//18 16//18
f 8//19 11//19 17//19
f 1//20 12//20 11//20
f 6//21 14//21 12//21
f 9//22 13//22 16//22
f 14//23 10//23 20//23
f 10//24 15//24 21//24
f 15//25 7//25 16//25
f 37//26 22//26 8//26
f 11//27 23//27 17//27
f 11//28 12//28 23//28
f 12//29 14//29 24//29
f 16//30 13//30 25//30
f 18//31 19//31 27//31
f 14//32 20//32 24//32
f 20//33 10//33 21//33
f 21//34 15//34 28//34
f 15//35 16//35 29//35
f 30//36 17//36 23//36
f 23//37 12//37 24//37
f 16//38 25//38 29//38
f 13//39 26//39 25//39
f 24//40 20//40 34//40
f 20//41 21//41 35//41
f 21//42 28//42 35//42
f 15//43 29//43 28//43
f 37//44 36//44 22//44
f 23//45 24//45 38//45
f 29//46 25//46 39//46
f 26//47 40//47 41//47
f 19//48 48//48 27//48
f 27//49 42//49 33//49
f 19//50 32//50 48//50
f 24//51 34//51 38//51
f 20//52 35//52 34//52
f 28//53 29//53 39//53
f 44//54 32//54 36//54
f 23//55 38//55 57//55
f 48//56 42//56 27//56
f 33//57 42//57 47//57
f 38//58 49//58 99//58
f 50//59 35//59 43//59
f 28//60 39//60 94//60
f 44//61 36//61 52//61
f 48//62 32//62 44//62
f 40//63 26//63 61//63
f 48//64 53//64 42//64
f 33//65 47//65 54//65
f 42//66 55//66 47//66
f 34//67 50//67 49//67
f 44//68 52//68 58//68
f 52//69 36//69 45//69
f 48//70 44//70 59//70
f 45//71 57//71 60//71
f 53//72 55//72 42//72
f 47//73 62//73 54//73
f 55//74 63//74 47//74
f 48//75 59//75 53//75
f 59//76 44//76 58//76
f 58//77 52//77 64//77
f 52//78 45//78 64//78
f 64//79 45//79 60//79
f 53//80 66//80 55//80
f 54//81 76//81 61//81
f 47//82 63//82 62//82
f 54//83 62//83 76//83
f 55//84 66//84 63//84
f 53//85 59//85 66//85
f 59//86 58//86 67//86
f 68//87 58//87 64//87
f 64//88 60//88 69//88
f 63//89 71//89 62//89
f 76//90 62//90 72//90
f 63//91 66//91 73//91
f 59//92 67//92 66//92
f 67//93 58//93 68//93
f 68//94 64//94 69//94
f 69//95 60//95 70//95
f 65//96 74//96 70//96
f 63//97 73//97 71//97
f 62//98 71//98 72//98
f 66//99 67//99 73//99
f 67//100 68//100 73//100
f 68//101 69//101 77//101
f 77//102 69//102 70//102
f 70//103 74//103 78//103
f 73//104 77//104 71//104
f 71//105 77//105 72//105
f 73//106 68//106 77//106
f 72//107 77//107 70//107
f 79//108 80//108 81//108
f 79//109 81//109 82//109
f 81//110 80//110 83//110
f 79//111 82//111 84//111
f 82//112 81//112 85//112
f 86//113 80//113 79//113
f 81//114 83//114 87//114
f 80//115 88//115 83//115
f 84//116 82//116 89//116
f 82//117 85//117 90//117
f 81//118 87//118 85//118
f 86//119 79//119 91//119
f 88//120 80//120 86//120
f 79//121 84//121 92//121
f 87//122 83//122 93//122
f 83//123 88//123 94//123
f 84//124 89//124 74//124
f 82//125 90//125 89//125
f 85//126 87//126 95//126
f 86//127 91//127 96//127
f 79//128 92//128 91//128
f 88//129 86//129 97//129
f 84//130 74//130 92//130
f 87//131 93//131 95//131
f 83//132 94//132 46//132
f 88//133 97//133 94//133
f 90//134 76//134 75//134
f 97//135 86//135 96//135
f 91//136 98//136 96//136
f 91//137 92//137 98//137
f 97//138 50//138 43//138
f 96//139 98//139 99//139
f 95//140 41//140 40//140
f 41//141 93//141 46//141
f 97//142 43//142 51//142
f 49//143 50//143 96//143
f 56//144 99//144 98//144
f 5//145 31//145 19//145
f 19//146 18//146 5//146
f 8//147 22//147 31//147
f 13//148 5//148 18//148
f 8//149 17//149 37//149
f 26//150 13//150 18//150
f 27//151 33//151 18//151
f 33//152 26//152 18//152
f 32//153 19//153 31//153
f 31//154 22//154 32//154
f 23//155 57//155 30//155
f 30//156 37//156 17//156
f 36//157 32//157 22//157
f 41//158 25//158 26//158
f 35//159 28//159 43//159
f 37//160 30//160 45//160
f 36//161 37//161 45//161
f 45//162 30//162 57//162
f 39//163 25//163 41//163
f 46//164 39//164 41//164
f 33//165 61//165 26//165
f 38//166 34//166 49//166
f 50//167 34//167 35//167
f 51//168 43//168 28//168
f 94//169 51//169 28//169
f 99//170 56//170 57//170
f 57//171 38//171 99//171
f 39//172 46//172 94//172
f 33//173 54//173 61//173
f 65//174 60//174 56//174
f 60//175 57//175 56//175
f 65//176 70//176 60//176
f 76//177 72//177 75//177
f 72//178 78//178 75//178
f 72//179 70//179 78//179
f 76//180 90//180 85//180
f 93//181 83//181 46//181
f 74//182 89//182 78//182
f 75//183 89//183 90//183
f 85//184 95//184 76//184
f 92//185 74//185 65//185
f 41//186 95//186 93//186
f 94//187 97//187 51//187
f 89//188 75//188 78//188
f 95//189 40//189 61//189
f 61//190 76//190 95//190
f 97//191 96//191 50//191
f 65//192 98//192 92//192
f 99//193 49//193 96//193
f 56//194 98//194 65//194
